<?xml version="1.0" encoding="UTF-8"?> <!-- Generator: Adobe Illustrator 18.1.1, SVG Export Plug-In . SVG Version: 6.00 Build 0) --> <svg xmlns="http://www.w3.org/2000/svg" xmlns:xlink="http://www.w3.org/1999/xlink" id="Ebene_1" x="0px" y="0px" viewBox="0 0 122.7 21.2" xml:space="preserve"> <g> <path fill="#21759b" d="M3.5,2C4.3,2,5,2.7,5,3.4v14.1c0,0.7-0.7,1.4-1.5,1.4H2.1V2H3.5z M3.5,0.6H0.7v19.7h2.9 c1.6,0,2.9-1.3,2.9-2.8V3.4C6.5,1.8,5.1,0.6,3.5,0.6"></path> <path fill="#21759b" d="M12.9,13.2H10V8.7c0-0.7,0.7-1.4,1.4-1.4s1.5,0.7,1.5,1.4L12.9,13.2L12.9,13.2z M10,14.6h4.3V8.7 c0-1.5-1.3-2.8-2.9-2.8S8.5,7.2,8.5,8.7v9.1c0,1.5,1.3,2.8,2.9,2.8s2.9-1.3,2.9-2.8V17h-1.5v0.7c0,0.7-0.7,1.4-1.5,1.4 S10,18.4,10,17.8V14.6z"></path> <path fill="#21759b" d="M26.7,6.2V2.6h-1.5v3.5h-1.4v1.4h1.4v10c0,1.5,1.3,2.8,2.9,2.8h0.7V19h-0.7c-0.7,0-1.5-0.7-1.5-1.4v-10h1.5 V6.2H26.7z"></path> <path fill="#21759b" d="M31.1,16.3h-1.5v1.4c0,1.5,1.3,2.8,2.9,2.8c1.5,0,2.9-1.3,2.9-2.8v-3l-4.3-4.2V8.7c0-0.7,0.7-1.4,1.5-1.4 C33.3,7.3,34,8,34,8.7v1.4h1.5V8.7c0-1.5-1.3-2.8-2.9-2.8c-1.6,0-2.9,1.3-2.9,2.8v2.5l4.3,4.2v2.3c0,0.7-0.7,1.4-1.4,1.4 c-0.7,0-1.5-0.7-1.5-1.4V16.3L31.1,16.3z"></path> <path fill="#21759b" d="M46.3,7.5V0.6h-1.4v19.7h1.4v-9.6c0-2.1,2.2-3.1,2.9-3.1v12.7h1.4V6h-0.7C48.5,6,47.2,6.6,46.3,7.5"></path> <path fill="#21759b" d="M57.1,13.2h-2.9V8.7c0-0.7,0.7-1.4,1.4-1.4s1.5,0.7,1.5,1.4L57.1,13.2L57.1,13.2z M54.2,14.6h4.3V8.7 c0-1.5-1.3-2.8-2.9-2.8c-1.6,0-2.9,1.3-2.9,2.8v9.1c0,1.5,1.3,2.8,2.9,2.8c1.6,0,2.9-1.3,2.9-2.8V17h-1.5v0.7 c0,0.7-0.7,1.4-1.5,1.4s-1.4-0.7-1.4-1.4L54.2,14.6L54.2,14.6z"></path> <path fill="#21759b" d="M69.9,3.4V9c0,0.7-0.7,1.4-1.5,1.4h-1.4V2h1.4C69.2,2,69.9,2.6,69.9,3.4 M71.4,13.2c0-0.9-0.4-1.6-1-2.1 c0.6-0.5,1-1.3,1-2.1V3.4c0-1.5-1.3-2.8-2.9-2.8h-2.9v19.7h1.5v-8.5h1.4c0.7,0,1.5,0.7,1.5,1.4v7.1h1.5L71.4,13.2L71.4,13.2z"></path> <path fill="#21759b" d="M75.2,17.8V8.7c0-0.7,0.7-1.4,1.4-1.4s1.5,0.7,1.5,1.4v9.1c0,0.7-0.7,1.4-1.5,1.4 C75.9,19.2,75.2,18.4,75.2,17.8 M76.7,5.9c-1.6,0-2.9,1.3-2.9,2.8v9.1c0,1.5,1.3,2.8,2.9,2.8s2.9-1.3,2.9-2.8V8.7 C79.6,7.2,78.3,5.9,76.7,5.9"></path> <path fill="#21759b" d="M83.4,7.5V0.6H82v19.7h1.4v-9.6c0-2.1,2.2-3.1,2.9-3.1v12.7h1.4V6h-0.7C85.7,6,84.3,6.6,83.4,7.5"></path> <path fill="#21759b" d="M91.3,16.3h-1.5v1.4c0,1.5,1.3,2.8,2.9,2.8c1.5,0,2.9-1.3,2.9-2.8v-3l-4.3-4.2V8.7c0-0.7,0.7-1.4,1.5-1.4 c0.7,0,1.4,0.7,1.4,1.4v1.4h1.5V8.7c0-1.5-1.3-2.8-2.9-2.8c-1.6,0-2.9,1.3-2.9,2.8v2.5l4.3,4.2v2.3c0,0.7-0.7,1.4-1.4,1.4 c-0.7,0-1.5-0.7-1.5-1.4V16.3z"></path> <path fill="#21759b" d="M99.5,6.2V2.6h-1.5v3.5h-1.4v1.4h1.4v10c0,1.5,1.3,2.8,2.9,2.8h0.7V19H101c-0.7,0-1.5-0.7-1.5-1.4v-10h1.5 V6.2H99.5z"></path> <path fill="#21759b" d="M104.6,17.8V8.7c0-0.7,0.7-1.4,1.4-1.4s1.5,0.7,1.5,1.4v9.1c0,0.7-0.7,1.4-1.5,1.4 C105.3,19.2,104.6,18.4,104.6,17.8 M106,5.9c-1.6,0-2.9,1.3-2.9,2.8v9.1c0,1.5,1.3,2.8,2.9,2.8s2.9-1.3,2.9-2.8V8.7 C108.9,7.2,107.6,5.9,106,5.9"></path> <path fill="#21759b" d="M111.7,6.2h-1.5v1.4h1.5v12.7h1.4V7.6h1.5V6.2h-1.5V3.4c0-0.7,0.7-1.4,1.5-1.4h1.5V0.6h-1.5 c-1.5,0-2.9,1.2-2.9,2.8V6.2z"></path> <path fill="#21759b" d="M117.6,6.2h-1.5v1.4h1.5v12.7h1.4V7.6h1.5V6.2H119V3.4c0-0.7,0.7-1.4,1.5-1.4h1.5V0.6h-1.5 c-1.5,0-2.9,1.2-2.9,2.8V6.2z"></path> <path fill="#21759b" d="M22.3,6.2h-1.4v11.6c0,0.7-0.7,1.4-1.5,1.4v1.4c1.6,0,2.9-1.3,2.9-2.8V6.2z M17.9,17.8V6.2h-1.4v11.6 c0,1.5,1.3,2.8,2.9,2.8v-1.4C18.6,19.2,17.9,18.4,17.9,17.8"></path> <path fill="#21759b" d="M41.5,7.6h-1.5c-0.7,0-1.4,0.7-1.4,1.4v8.7c0,0.7,0.7,1.4,1.4,1.4s1.5-0.7,1.5-1.4V17H43v0.7 c0,1.5-1.3,2.8-2.9,2.8s-2.9-1.3-2.9-2.8V9c0-1.5,1.3-2.9,2.9-2.9H43v2.5h-1.5C41.5,8.7,41.5,7.6,41.5,7.6z"></path> </g> </svg> 