<?xml version="1.0" encoding="utf-8"?>
<!-- Generator: Adobe Illustrator 14.0.0, SVG Export Plug-In . SVG Version: 6.00 Build 43363)  -->
<!DOCTYPE svg PUBLIC "-//W3C//DTD SVG 1.1//EN" "http://www.w3.org/Graphics/SVG/1.1/DTD/svg11.dtd">
<svg version="1.1" id="Ebene_3" xmlns="http://www.w3.org/2000/svg" xmlns:xlink="http://www.w3.org/1999/xlink" x="0px" y="0px"
	 width="800px" height="600px" viewBox="0 0 800 600" enable-background="new 0 0 800 600" xml:space="preserve">
<g>
	<circle fill="#6EA0D2" cx="384.242" cy="302.966" r="81.666"/>
	<path fill="#FFFFFF" d="M408.603,275.413c0.261-0.162,0.568-0.256,0.897-0.256c0.939,0,1.701,0.762,1.701,1.7l-7.902,48.72h0.001
		c-0.236,0.654-0.863,1.123-1.6,1.123c-0.275,0-0.535-0.065-0.765-0.182l-13.685-5.811l-8.193,9.63
		c-0.312,0.374-0.782,0.612-1.307,0.612c-0.939,0-1.701-0.762-1.701-1.701V317.75l26.035-31.958l-32.25,27.917l-13.071-5.438
		l-0.004,0.002c-0.476-0.302-0.792-0.834-0.792-1.439c0-0.604,0.316-1.136,0.792-1.438l0.005,0.001l51.845-29.982L408.603,275.413z"
		/>
</g>
</svg>
