<?xml version="1.0" encoding="utf-8"?>
<!-- Generator: Adobe Illustrator 14.0.0, SVG Export Plug-In . SVG Version: 6.00 Build 43363)  -->
<!DOCTYPE svg PUBLIC "-//W3C//DTD SVG 1.1//EN" "http://www.w3.org/Graphics/SVG/1.1/DTD/svg11.dtd">
<svg version="1.1" id="Ebene_1" xmlns="http://www.w3.org/2000/svg" xmlns:xlink="http://www.w3.org/1999/xlink" x="0px" y="0px"
	 width="163.332px" height="163.332px" viewBox="302.576 221.3 163.332 163.332"
	 enable-background="new 302.576 221.3 163.332 163.332" xml:space="preserve">
<g id="Ebene_2">
</g>
<g id="Ebene_3">
	<g>
		<circle fill="#6EA0D2" cx="384.242" cy="302.966" r="81.666"/>
		<path fill="#FFFFFF" d="M371.624,278.054c2.599-0.611,4.446,2.268,5.843,4.247c1.36,1.923,3.027,4.177,2.51,6.781
			c-0.287,1.462-1.559,2.307-2.509,3.205c-0.938,0.886-2.388,1.724-2.69,3.032c-0.495,2.125,0.89,4.271,1.743,5.49
			c1.936,2.755,4.236,5.212,7.132,7.371c1.401,1.046,3.345,2.438,5.21,1.978c2.786-0.692,3.374-4.192,6.414-4.792
			c2.893-0.569,4.958,1.453,6.667,2.797c1.645,1.3,4.281,2.94,4.211,5.292c-0.041,1.354-1.088,2.236-1.989,3.094
			c-0.914,0.874-1.708,1.846-2.624,2.5c-2.216,1.593-4.98,2.445-8.195,2.485c-3.155,0.043-5.711-0.914-8.043-2.028
			c-4.557-2.177-8.223-5.359-11.703-8.936c-3.423-3.517-6.626-7.716-8.504-12.43c-2.342-5.89-1.517-12.083,1.675-16.066
			c0.54-0.676,1.407-1.395,2.199-2.131C369.759,279.205,370.48,278.322,371.624,278.054z"/>
	</g>
</g>
</svg>
