<?xml version="1.0" encoding="UTF-8" standalone="no"?>
<svg
   xmlns:dc="http://purl.org/dc/elements/1.1/"
   xmlns:cc="http://creativecommons.org/ns#"
   xmlns:rdf="http://www.w3.org/1999/02/22-rdf-syntax-ns#"
   xmlns:svg="http://www.w3.org/2000/svg"
   xmlns="http://www.w3.org/2000/svg"
   xmlns:sodipodi="http://sodipodi.sourceforge.net/DTD/sodipodi-0.dtd"
   xmlns:inkscape="http://www.inkscape.org/namespaces/inkscape"
   version="1.1"
   x="0px"
   y="0px"
   viewBox="0 0 100 100"
   xml:space="preserve"
   id="svg20"
   sodipodi:docname="noun_translate_2822454.svg"
   inkscape:version="0.92.4 (5da689c313, 2019-01-14)"
   width="100"
   height="100"><metadata
     id="metadata26"><rdf:RDF><cc:Work
         rdf:about=""><dc:format>image/svg+xml</dc:format><dc:type
           rdf:resource="http://purl.org/dc/dcmitype/StillImage" /><dc:title></dc:title></cc:Work></rdf:RDF></metadata><defs
     id="defs24" /><sodipodi:namedview
     pagecolor="#ffffff"
     bordercolor="#666666"
     borderopacity="1"
     objecttolerance="10"
     gridtolerance="10"
     guidetolerance="10"
     inkscape:pageopacity="0"
     inkscape:pageshadow="2"
     inkscape:window-width="1920"
     inkscape:window-height="1048"
     id="namedview22"
     showgrid="false"
     inkscape:zoom="3.337544"
     inkscape:cx="138.58133"
     inkscape:cy="-5.0309075"
     inkscape:window-x="0"
     inkscape:window-y="16"
     inkscape:window-maximized="1"
     inkscape:current-layer="svg20" /><g
     id="g14"
     transform="matrix(1.7972177,0,0,1.7972177,-21.745401,-22.044624)"><path
       d="M 36,12.5996 H 16 c -1.875,0 -3.3999,1.5254 -3.3999,3.4004 v 20 c 0,1.875 1.5249,3.4004 3.3999,3.4004 h 20 c 1.875,0 3.3999,-1.5254 3.3999,-3.4004 V 16 C 39.3999,14.125 37.875,12.5996 36,12.5996 Z M 38.6001,36 c 0,1.4336 -1.1665,2.5996 -2.6001,2.5996 H 16 c -1.4336,0 -2.6001,-1.166 -2.6001,-2.5996 V 16 c 0,-1.4336 1.1665,-2.5996 2.6001,-2.5996 h 20 c 1.4336,0 2.6001,1.166 2.6001,2.5996 z"
       id="path2"
       inkscape:connector-curvature="0" /><path
       d="M 64,40.5996 H 44 c -1.875,0 -3.3999,1.5254 -3.3999,3.4004 v 20 c 0,1.875 1.5249,3.4004 3.3999,3.4004 h 20 c 1.875,0 3.3999,-1.5254 3.3999,-3.4004 V 44 C 67.3999,42.125 65.875,40.5996 64,40.5996 Z M 66.6001,64 c 0,1.4336 -1.1665,2.5996 -2.6001,2.5996 H 44 c -1.4336,0 -2.6001,-1.166 -2.6001,-2.5996 V 44 c 0,-1.4336 1.1665,-2.5996 2.6001,-2.5996 h 20 c 1.4336,0 2.6001,1.166 2.6001,2.5996 z"
       id="path4"
       inkscape:connector-curvature="0" /><path
       d="m 26.3691,19.8457 c -0.124,-0.2969 -0.6143,-0.2969 -0.7383,0 l -2.8433,6.8238 C 22.6773,26.7409 22.6,26.8591 22.6,27 c 0,0.0286 0.0106,0.0536 0.0162,0.0805 l -1.9855,4.7652 c -0.085,0.2041 0.0112,0.4385 0.2153,0.5234 0.2036,0.085 0.4375,-0.0117 0.5229,-0.2148 l 1.9808,-4.7539 h 5.3002 l 1.9808,4.7539 c 0.064,0.1533 0.2124,0.2461 0.3691,0.2461 0.0513,0 0.1035,-0.0098 0.1538,-0.0313 0.2041,-0.085 0.3003,-0.3193 0.2153,-0.5234 z M 23.6835,26.5996 26,21.04 l 2.3165,5.5596 z"
       id="path6"
       inkscape:connector-curvature="0" /><path
       d="m 59.3999,50 c 0,-0.2207 -0.1792,-0.4004 -0.3999,-0.4004 H 54.3999 V 48 c 0,-0.2207 -0.1792,-0.4004 -0.3999,-0.4004 -0.2207,0 -0.3999,0.1797 -0.3999,0.4004 v 1.5996 H 49 c -0.2207,0 -0.3999,0.1797 -0.3999,0.4004 0,0.2207 0.1792,0.4004 0.3999,0.4004 h 1.5757 c -0.0259,1.125 0.1858,4.1378 2.8235,6.7748 -1.1009,0.9291 -2.5558,1.7883 -4.5256,2.4449 -0.2095,0.0703 -0.3228,0.2969 -0.2529,0.5068 0.0557,0.167 0.2119,0.2734 0.3794,0.2734 0.042,0 0.0845,-0.0068 0.1265,-0.0205 2.1172,-0.7058 3.6935,-1.6358 4.8734,-2.649 1.1799,1.0132 2.7562,1.9432 4.8735,2.6491 0.042,0.0137 0.0845,0.0205 0.1265,0.0205 0.1675,0 0.3237,-0.1064 0.3794,-0.2734 0.0698,-0.21 -0.0435,-0.4365 -0.2529,-0.5068 -1.9754,-0.6584 -3.4351,-1.5116 -4.5385,-2.4323 2.6497,-2.6399 2.8623,-5.6606 2.8364,-6.7874 H 59 c 0.2207,-1e-4 0.3999,-0.1798 0.3999,-0.4005 z m -5.4151,6.6428 c -2.5263,-2.4779 -2.6616,-5.2767 -2.6166,-6.2424 h 5.2589 c 0.0313,0.9578 -0.1346,3.766 -2.6423,6.2424 z"
       id="path8"
       inkscape:connector-curvature="0" /><path
       d="m 43.6001,27 c 0,0.0604 0.0154,0.1161 0.0394,0.1675 0.0074,0.0159 0.0194,0.0279 0.0287,0.0427 0.0214,0.0337 0.0449,0.0645 0.0751,0.0904 0.0066,0.0057 0.0094,0.0144 0.0164,0.0197 l 4,3 c 0.0723,0.0537 0.1563,0.0801 0.2397,0.0801 0.1216,0 0.2417,-0.0557 0.3203,-0.1602 0.1328,-0.1768 0.0967,-0.4277 -0.0796,-0.5605 L 45.2004,27.4004 H 50 c 0.3105,0 7.6001,0.0977 7.6001,8.5996 0,0.2207 0.1792,0.4004 0.3999,0.4004 0.2207,0 0.3999,-0.1797 0.3999,-0.4004 0,-9.293 -8.3159,-9.4004 -8.3999,-9.4004 h -4.7995 l 3.0397,-2.2793 c 0.1763,-0.1328 0.2124,-0.3838 0.0796,-0.5605 -0.1323,-0.1758 -0.3823,-0.2109 -0.5601,-0.0801 l -4,3 c -0.007,0.0053 -0.0098,0.014 -0.0164,0.0197 -0.0303,0.0259 -0.0538,0.0567 -0.0753,0.0905 -0.0093,0.0147 -0.0213,0.0267 -0.0286,0.0424 -0.0238,0.0514 -0.0393,0.1073 -0.0393,0.1677 z"
       id="path10"
       inkscape:connector-curvature="0" /><path
       d="m 36.3999,53 c 0,-0.0604 -0.0155,-0.1163 -0.0395,-0.1677 -0.0073,-0.0157 -0.0192,-0.0277 -0.0286,-0.0424 -0.0215,-0.0338 -0.045,-0.0646 -0.0753,-0.0905 -0.0066,-0.0057 -0.0093,-0.0144 -0.0164,-0.0197 l -4,-3 c -0.1763,-0.1318 -0.4268,-0.0957 -0.5601,0.0801 -0.1328,0.1768 -0.0967,0.4277 0.0796,0.5605 l 3.0397,2.2793 H 30 c -0.3105,0 -7.6001,-0.0977 -7.6001,-8.5996 0,-0.2207 -0.1792,-0.4004 -0.3999,-0.4004 -0.2207,0 -0.3999,0.1797 -0.3999,0.4004 0,9.293 8.3159,9.4004 8.3999,9.4004 h 4.7995 l -3.0397,2.2793 c -0.1763,0.1328 -0.2124,0.3838 -0.0796,0.5605 0.0786,0.1045 0.1987,0.1602 0.3203,0.1602 0.0835,0 0.1675,-0.0264 0.2397,-0.0801 l 4,-3 c 0.007,-0.0053 0.0098,-0.014 0.0164,-0.0197 0.0302,-0.0259 0.0536,-0.0567 0.0751,-0.0904 0.0093,-0.0148 0.0214,-0.0268 0.0287,-0.0427 0.0241,-0.0514 0.0395,-0.1071 0.0395,-0.1675 z"
       id="path12"
       inkscape:connector-curvature="0" /></g></svg>